<?xml version="1.0" standalone="no"?>
<!DOCTYPE svg PUBLIC "-//W3C//DTD SVG 20010904//EN"
 "http://www.w3.org/TR/2001/REC-SVG-20010904/DTD/svg10.dtd">
<svg version="1.0" xmlns="http://www.w3.org/2000/svg"
 width="260.000000pt" height="260.000000pt" viewBox="0 0 260.000000 260.000000"
 preserveAspectRatio="xMidYMid meet">
<metadata>
Created by potrace 1.14, written by Peter Selinger 2001-2017
</metadata>
<g transform="translate(0.000000,260.000000) scale(0.100000,-0.100000)"
fill="#000000" stroke="none">
<path d="M446 1979 c5 -8 -9 -11 -63 -12 -12 -1 -19 -5 -16 -11 4 -5 -1 -7
-10 -3 -9 3 -19 2 -23 -4 -3 -6 -13 -8 -21 -5 -8 3 -11 1 -8 -4 3 -6 -3 -10
-14 -10 -11 0 -25 -8 -30 -17 -6 -10 -11 -14 -11 -10 0 17 -70 -64 -86 -101
-19 -42 -25 -147 -11 -176 6 -13 6 -16 -2 -12 -16 10 -13 0 5 -18 8 -9 11 -16
5 -16 -6 0 4 -27 21 -59 17 -33 35 -58 39 -55 20 12 -1 -26 -29 -54 -18 -17
-32 -36 -32 -42 0 -6 -5 -8 -12 -4 -8 5 -9 2 -5 -9 4 -11 1 -17 -9 -17 -8 0
-13 -4 -9 -9 3 -5 1 -12 -4 -16 -6 -3 -7 -13 -4 -22 4 -10 2 -14 -4 -10 -6 4
-14 0 -17 -9 -4 -10 -2 -13 7 -8 6 4 5 -1 -4 -12 -9 -10 -14 -25 -12 -31 3 -7
-1 -13 -7 -13 -7 0 -10 -6 -7 -13 3 -8 1 -20 -3 -27 -5 -8 -4 -22 2 -33 8 -16
7 -19 -5 -14 -15 6 -18 -8 -5 -28 3 -5 5 -31 4 -57 -1 -27 1 -48 5 -48 4 0 5
-9 2 -20 -3 -11 0 -20 6 -20 6 0 10 -3 10 -7 -4 -25 2 -53 11 -48 5 3 10 -3
10 -14 0 -12 9 -26 19 -33 10 -6 17 -18 14 -25 -3 -7 -1 -13 4 -13 5 0 23 -13
41 -29 17 -17 32 -28 32 -25 0 3 7 -1 15 -10 21 -20 124 -58 137 -50 7 4 8 2
4 -4 -5 -8 0 -11 16 -8 13 2 30 0 39 -5 8 -4 21 -4 29 1 9 5 19 5 27 -2 8 -6
13 -6 13 -1 0 11 29 11 48 -1 6 -4 12 -3 12 2 0 10 30 10 46 -1 6 -3 14 -3 18
0 10 10 46 11 46 1 0 -5 6 -6 12 -2 18 11 48 12 48 2 0 -5 6 -6 12 -2 18 11
48 12 48 2 0 -5 6 -6 12 -2 18 11 48 12 48 2 0 -5 6 -6 12 -2 18 11 48 12 48
2 0 -5 6 -6 12 -2 18 11 48 12 48 2 0 -5 6 -6 12 -2 18 11 48 12 48 2 0 -5 6
-6 12 -2 19 12 48 12 48 1 0 -5 7 -4 15 3 8 7 15 9 15 4 0 -5 7 0 16 11 8 11
17 19 19 18 6 -4 5 7 -5 33 -10 24 -59 36 -86 21 -9 -5 -14 -6 -11 -1 3 5 -33
9 -83 9 -48 0 -86 -3 -83 -7 2 -5 -6 -4 -19 1 -15 6 -31 5 -42 -1 -14 -8 -17
-7 -12 1 8 12 -20 11 -40 -2 -6 -3 -14 -4 -17 0 -11 10 -67 11 -67 1 0 -5 -5
-6 -12 -2 -17 10 -58 11 -64 2 -3 -5 -10 -5 -16 -2 -18 11 -68 13 -68 2 0 -5
-5 -6 -12 -2 -6 4 -42 7 -79 7 -37 1 -66 4 -63 9 3 4 -6 8 -20 8 -14 0 -26 5
-26 11 0 5 -4 7 -10 4 -6 -3 -10 -1 -10 5 0 6 -4 9 -8 6 -5 -3 -18 4 -30 14
-12 11 -24 20 -27 20 -8 0 -35 27 -38 37 -1 4 -6 7 -10 5 -5 -1 -6 2 -3 7 4 5
-1 17 -10 25 -8 9 -12 16 -8 16 3 0 0 8 -7 17 -12 14 -12 15 0 9 8 -6 7 0 -4
18 -14 20 -14 26 -4 26 9 0 10 3 4 8 -16 11 -17 34 -3 43 7 5 8 9 3 9 -6 0
-11 9 -12 20 -1 12 3 18 9 14 6 -4 6 1 -1 14 -7 13 -8 23 -1 27 5 3 8 20 6 36
-2 19 1 33 10 36 8 3 14 16 14 28 0 13 5 27 10 30 6 4 7 12 4 18 -4 7 -4 9 1
5 11 -10 38 20 29 34 -5 8 -2 9 9 5 9 -3 16 -2 14 2 -3 11 50 61 57 53 3 -3 6
1 6 9 0 11 2 11 10 -1 5 -8 10 -10 10 -4 0 14 31 14 49 0 11 -8 13 -8 8 0 -4
7 2 12 18 12 16 0 22 -5 18 -12 -4 -6 0 -5 9 2 12 9 18 10 23 2 5 -8 10 -8 20
0 10 8 15 8 20 0 5 -8 11 -8 19 -1 9 7 17 7 26 -2 8 -7 10 -7 7 -1 -4 7 3 12
18 12 16 0 22 -5 18 -12 -4 -6 0 -5 9 2 12 9 18 10 23 2 5 -8 11 -7 22 1 12
10 16 10 24 -2 6 -10 9 -10 9 -1 0 6 3 11 8 11 25 -4 40 4 50 26 15 33 15 35
-3 35 -9 0 -18 7 -21 15 -5 11 -10 13 -19 5 -9 -8 -15 -8 -20 0 -3 6 -10 8
-15 5 -5 -3 -12 -1 -15 5 -5 7 -11 8 -19 1 -12 -10 -85 -9 -103 2 -7 4 -14 3
-18 -2 -6 -11 -91 -8 -102 2 -3 4 -12 2 -18 -3 -7 -6 -23 -8 -36 -6 -13 3 -27
5 -30 5 -15 2 -49 40 -49 55 0 11 -5 14 -12 10 -8 -5 -9 -2 -5 9 4 10 2 17 -5
17 -6 0 -5 6 3 17 10 11 10 14 2 9 -7 -4 -13 -4 -14 1 -6 62 -5 113 3 113 6 0
6 6 -1 14 -10 11 -8 17 6 25 10 6 14 11 10 11 -12 0 50 60 62 60 6 0 11 5 11
12 0 6 3 8 7 5 3 -4 15 1 26 10 11 10 17 12 13 6 -4 -7 -2 -13 3 -13 6 0 11 4
11 9 0 6 9 8 20 6 11 -2 20 1 20 7 0 6 7 5 17 -3 10 -8 14 -9 10 -2 -8 13 29
13 50 0 6 -4 15 -3 18 3 5 8 12 7 23 -2 12 -10 14 -10 8 0 -4 6 -3 12 1 12 5
0 15 -6 22 -12 8 -8 11 -8 8 -2 -4 7 3 12 18 12 14 0 25 -5 25 -10 0 -7 5 -6
13 1 10 7 17 7 24 0 8 -8 13 -7 18 1 5 8 11 7 23 -2 12 -10 14 -10 8 0 -4 6
-3 12 1 12 5 0 15 -6 22 -12 8 -8 11 -8 8 -2 -4 7 3 12 18 12 14 0 25 -4 25
-8 0 -3 7 -7 15 -7 8 0 12 4 9 9 -7 11 3 10 28 -3 14 -7 18 -8 14 0 -4 6 4 9
24 6 18 -2 30 1 31 8 0 7 4 3 9 -8 5 -11 9 -15 9 -10 1 6 17 11 36 12 23 0 33
-3 28 -11 -4 -7 -1 -6 9 1 8 7 18 10 22 6 11 -12 37 -12 29 0 -4 6 0 8 9 4 9
-3 21 0 28 6 10 9 11 9 5 -3 -8 -13 -7 -13 8 -1 10 8 15 16 13 19 -3 2 -1 14
5 25 9 15 8 18 -2 12 -9 -6 -10 -3 -5 11 4 10 4 15 0 11 -4 -4 -14 -1 -22 6
-16 13 -154 18 -146 5 3 -5 0 -8 -5 -8 -6 0 -11 6 -11 13 0 8 -4 7 -10 -3 -8
-12 -10 -12 -10 -1 0 11 -3 11 -15 1 -8 -6 -19 -9 -25 -5 -18 11 -51 14 -45 4
4 -5 1 -9 -4 -9 -6 0 -11 6 -11 13 0 8 -4 7 -10 -3 -8 -12 -10 -12 -10 -1 0
11 -3 11 -15 1 -8 -6 -19 -9 -25 -5 -18 11 -51 14 -45 4 4 -5 1 -9 -4 -9 -6 0
-11 6 -11 13 0 8 -4 7 -10 -3 -8 -12 -10 -12 -10 -1 0 11 -3 11 -15 1 -8 -6
-19 -9 -25 -5 -18 11 -51 14 -45 4 4 -5 1 -9 -4 -9 -6 0 -11 6 -11 13 0 8 -4
7 -10 -3 -8 -12 -10 -12 -10 -1 0 11 -3 11 -15 1 -8 -6 -19 -8 -26 -5 -17 11
-69 14 -63 4z"/>
<path d="M1244 1978 c-5 -7 -3 -8 6 -3 9 5 11 4 6 -4 -6 -9 -11 -9 -21 -1 -9
8 -12 5 -11 -12 1 -13 -1 -31 -6 -40 -4 -9 -4 -19 1 -22 5 -4 8 -14 6 -24 -1
-9 2 -26 8 -37 10 -19 9 -19 -8 -5 -10 8 -16 10 -12 4 11 -20 16 -64 6 -64 -6
0 -7 -6 -2 -12 10 -17 11 -59 1 -80 -5 -9 -4 -19 1 -22 5 -4 8 -14 6 -24 -1
-9 2 -26 8 -37 10 -19 9 -19 -8 -5 -10 8 -16 10 -12 4 11 -20 16 -64 6 -64 -6
0 -7 -6 -2 -12 10 -17 11 -59 1 -80 -5 -9 -4 -19 1 -22 5 -4 8 -14 6 -24 -1
-9 2 -26 8 -37 10 -19 9 -19 -8 -5 -10 8 -16 10 -12 4 12 -20 16 -64 5 -64 -7
0 -7 -4 -1 -12 10 -12 10 -18 0 -63 -9 -37 -9 -40 -8 -63 0 -13 5 -21 10 -18
5 3 15 -1 22 -10 8 -10 21 -13 38 -9 26 7 52 34 45 47 -3 5 -1 8 4 8 6 0 8 9
5 20 -3 11 -8 18 -12 16 -9 -6 -8 331 2 340 4 4 7 12 7 18 0 6 -4 5 -9 -2 -4
-8 -8 36 -7 101 1 64 4 119 9 123 4 4 -1 16 -10 27 -17 19 -17 20 0 14 13 -5
16 -3 10 6 -13 20 -13 46 -1 53 7 5 8 3 3 -6 -6 -10 -4 -11 6 -4 22 13 42 14
58 1 11 -9 13 -9 8 0 -11 18 43 10 75 -11 15 -10 25 -22 22 -27 -3 -5 0 -8 8
-7 7 2 12 -3 11 -9 -2 -7 2 -13 8 -13 7 0 31 -20 55 -44 23 -24 45 -42 48 -38
3 3 6 0 6 -6 0 -14 158 -172 172 -172 5 0 7 -4 4 -9 -3 -5 2 -12 11 -15 14 -6
15 -9 3 -16 -10 -6 -11 -12 -2 -22 9 -11 9 -17 0 -26 -9 -9 -9 -12 1 -12 7 0
9 -5 5 -12 -12 -19 -12 -48 0 -48 6 0 4 -5 -4 -10 -13 -9 -13 -10 0 -10 13 0
13 -1 0 -10 -11 -7 -11 -10 -2 -10 8 0 10 -5 5 -12 -11 -19 -13 -39 -2 -32 5
3 5 -6 -1 -20 -6 -18 -6 -26 1 -26 6 0 7 -6 3 -12 -11 -17 -12 -48 -2 -42 4 3
8 1 8 -5 0 -5 -6 -12 -12 -14 -10 -4 -10 -8 1 -15 12 -9 12 -13 2 -26 -10 -12
-10 -16 -2 -16 7 0 9 -5 5 -12 -12 -19 -12 -48 0 -48 6 0 4 -5 -4 -10 -13 -9
-13 -10 0 -10 13 0 13 -1 0 -10 -12 -8 -12 -10 -1 -10 11 0 11 -3 0 -17 -10
-11 -10 -14 -1 -9 6 4 12 3 12 -3 0 -5 -6 -12 -12 -14 -10 -4 -10 -8 1 -15 12
-8 12 -13 2 -25 -9 -11 -9 -17 0 -22 8 -6 7 -10 -2 -16 -12 -8 -12 -11 0 -18
11 -7 12 -13 4 -23 -16 -19 -17 -30 -1 -39 10 -7 10 -9 -2 -9 -13 0 -13 -1 0
-10 13 -9 13 -10 0 -10 -13 0 -13 -1 0 -10 13 -9 13 -10 0 -10 -13 0 -13 -1 0
-10 13 -9 13 -10 0 -10 -13 0 -13 -1 0 -10 11 -7 11 -10 2 -10 -7 0 -10 -4 -7
-10 3 -5 2 -10 -2 -10 -5 0 -9 -11 -9 -25 0 -14 4 -25 10 -25 5 0 7 -3 3 -6
-13 -13 23 -35 50 -30 15 2 34 5 41 5 7 1 11 5 7 10 -3 5 -1 12 5 16 12 8 13
55 1 55 -5 0 -11 16 -13 35 -2 19 -1 35 3 35 4 0 4 14 -1 30 -5 17 -5 30 0 30
5 0 5 13 0 30 -5 17 -5 30 0 30 5 0 5 13 0 30 -5 17 -5 30 0 30 5 0 5 13 0 30
-5 17 -5 30 0 30 5 0 5 13 0 30 -5 17 -5 30 0 30 5 0 5 13 0 30 -5 17 -5 30 0
30 5 0 5 13 0 30 -5 17 -5 30 0 30 5 0 5 13 0 30 -5 17 -5 30 -2 30 4 0 5 32
2 70 -3 39 -2 70 2 70 3 0 3 14 -2 30 -5 17 -5 30 -2 30 4 0 7 16 6 35 -1 19
2 35 7 35 4 0 34 26 65 58 32 31 61 56 66 54 4 -1 7 1 6 5 -4 12 78 93 86 85
4 -4 6 -2 5 3 -5 15 33 55 45 48 6 -3 8 -3 4 2 -4 4 5 19 20 31 15 13 23 24
17 24 -5 0 5 9 23 20 38 23 46 25 36 8 -5 -8 -1 -8 10 1 15 13 19 13 27 0 5
-9 9 -10 9 -2 0 8 12 11 34 9 42 -4 58 -14 49 -29 -13 -20 -14 -49 -2 -41 7 4
7 -1 -1 -16 -10 -18 -9 -24 1 -31 8 -5 9 -9 4 -9 -15 0 -17 -50 -2 -50 7 0 8
-3 2 -8 -14 -10 -19 -46 -6 -37 8 4 8 -2 1 -21 -8 -21 -8 -29 2 -36 7 -4 8 -8
3 -8 -15 0 -17 -50 -2 -50 7 0 8 -3 2 -8 -16 -11 -19 -46 -3 -36 8 5 6 -2 -5
-19 -11 -17 -13 -25 -4 -21 14 5 16 -33 3 -55 -5 -8 -3 -17 5 -22 8 -5 9 -9 4
-9 -6 0 -11 -9 -12 -20 -1 -11 2 -18 8 -15 5 4 4 -6 -1 -21 -8 -21 -8 -29 2
-36 8 -5 9 -8 2 -8 -7 0 -10 -13 -8 -30 2 -16 -1 -30 -6 -30 -5 0 -6 -7 -3
-17 5 -12 3 -14 -8 -8 -12 8 -12 6 0 -8 11 -14 11 -17 0 -17 -12 0 -12 -2 -1
-9 8 -4 13 -11 13 -15 -1 -3 2 -6 6 -5 3 0 10 -6 15 -15 15 -26 50 -18 80 17
24 27 26 34 13 43 -11 8 -12 13 -2 24 9 10 9 11 0 6 -7 -4 -13 -4 -14 1 0 4
-2 18 -5 31 -3 17 -1 21 8 16 10 -6 10 -5 1 7 -10 12 -10 18 -1 27 7 7 8 12 2
12 -5 0 -10 9 -11 20 -1 13 2 18 10 13 9 -5 9 -3 0 8 -10 12 -10 18 -1 27 7 7
8 12 2 12 -5 0 -10 9 -11 20 -1 13 2 18 10 13 9 -5 9 -3 0 8 -10 12 -10 18 -1
27 7 7 8 12 2 12 -5 0 -10 9 -11 20 -1 13 2 18 10 13 9 -5 9 -3 0 8 -10 12
-10 18 -1 27 7 7 8 12 2 12 -5 0 -10 9 -11 20 -1 13 2 18 10 13 9 -5 9 -3 0 8
-10 12 -10 18 -1 27 7 7 8 12 2 12 -5 0 -10 9 -11 20 -1 13 2 18 10 13 9 -5 9
-3 0 8 -10 12 -10 18 -1 27 7 7 8 12 2 12 -5 0 -10 9 -11 20 -1 13 2 18 10 13
9 -5 9 -3 0 8 -10 12 -10 18 -1 27 7 7 8 12 2 12 -5 0 -10 9 -11 20 -1 13 2
18 10 13 9 -5 9 -3 0 8 -10 12 -10 18 -1 27 7 7 8 12 2 12 -5 0 -10 9 -11 20
-1 13 2 18 10 13 9 -5 9 -3 0 8 -10 12 -10 18 -1 27 9 9 9 12 -1 12 -7 0 -9 5
-6 10 3 6 1 10 -5 10 -6 0 -8 5 -4 11 4 7 -1 7 -16 -1 -15 -8 -20 -8 -16 -1 4
6 2 11 -3 11 -6 0 -11 -4 -11 -10 0 -5 -5 -10 -11 -10 -5 0 -8 3 -6 8 3 4 -8
7 -23 7 -16 1 -26 -3 -24 -7 3 -4 0 -8 -5 -8 -6 0 -11 6 -11 13 0 8 -4 7 -10
-3 -7 -11 -10 -11 -10 -2 0 8 -5 10 -12 5 -7 -4 -26 -8 -42 -9 -20 -1 -24 1
-15 7 9 6 3 8 -18 6 -24 -2 -29 -5 -20 -15 6 -7 6 -12 1 -11 -18 3 -37 -1 -31
-8 8 -7 -34 -39 -45 -35 -5 1 -7 -2 -5 -7 2 -8 -288 -301 -298 -301 -2 0 -57
52 -121 115 -64 63 -120 115 -126 115 -5 0 -7 4 -4 9 3 5 -4 16 -17 25 -43 32
-62 47 -47 40 8 -4 0 7 -17 24 -18 18 -41 32 -50 32 -15 0 -16 2 -3 10 12 8
11 10 -5 7 -11 -1 -25 -6 -32 -10 -6 -4 -13 -1 -16 5 -3 10 -7 10 -19 0 -13
-10 -17 -10 -20 0 -4 11 -8 11 -20 0 -13 -10 -17 -10 -20 0 -4 10 -8 10 -21
-1 -11 -9 -17 -10 -17 -2 0 6 -5 11 -11 11 -5 0 -7 -5 -3 -11 5 -8 1 -8 -14 0
-26 14 -29 14 -38 -1z m35 -787 c12 -8 12 -12 2 -25 -16 -19 -30 -12 -28 14 1
22 5 24 26 11z m1199 -13 c2 -9 -4 -18 -11 -21 -10 -4 -16 2 -19 18 -4 17 -1
22 11 20 9 -1 17 -9 19 -17z m-595 -474 c3 -4 -1 -13 -9 -22 -13 -13 -17 -13
-24 -2 -5 8 -6 18 -4 22 6 9 28 11 37 2z"/>
<path d="M2397 1869 c7 -7 15 -10 18 -7 3 3 -2 9 -12 12 -14 6 -15 5 -6 -5z"/>
<path d="M1405 1810 c-3 -6 -11 -8 -16 -5 -5 3 -6 -1 -3 -9 3 -9 11 -13 18 -9
6 4 5 -1 -3 -11 -13 -15 -13 -19 0 -27 8 -5 9 -9 4 -9 -14 0 -14 -63 -1 -72 8
-6 8 -8 0 -8 -12 0 -12 -29 1 -49 6 -11 4 -13 -10 -8 -17 7 -17 6 -1 -18 9
-14 13 -31 9 -38 -13 -21 -14 -49 -1 -41 7 5 8 3 2 -7 -12 -20 -14 -38 -3 -45
5 -3 9 -11 9 -17 0 -7 -4 -6 -10 3 -13 20 -8 -49 5 -69 6 -11 4 -13 -10 -8
-16 7 -17 6 -1 -17 10 -16 12 -27 5 -31 -6 -5 -6 -12 3 -23 11 -14 10 -15 -6
-9 -18 7 -18 6 -2 -18 11 -17 14 -31 8 -38 -11 -14 -10 -82 1 -93 4 -4 7 -12
7 -18 0 -6 -5 -4 -10 4 -13 20 -8 -49 5 -69 6 -11 4 -13 -10 -8 -16 7 -16 6
-2 -17 9 -13 13 -27 10 -30 -12 -12 -12 -40 0 -48 9 -6 9 -8 0 -8 -6 0 -10
-11 -9 -25 2 -13 0 -22 -4 -20 -5 3 -10 -2 -14 -10 -3 -8 -1 -15 4 -15 5 0 8
-8 6 -17 -3 -21 23 -48 44 -47 8 1 25 2 36 2 27 2 54 70 33 82 -5 4 -11 36
-13 73 -1 36 0 64 4 62 4 -2 7 2 7 10 0 8 -4 12 -9 9 -10 -6 -11 10 -1 20 9 9
12 46 3 41 -4 -3 -7 6 -7 20 0 14 4 22 9 19 6 -4 5 3 -1 14 -13 25 -14 35 -3
28 5 -3 9 1 9 9 0 8 -4 12 -9 9 -10 -6 -11 10 -1 20 9 9 12 46 3 41 -4 -3 -7
6 -7 20 0 14 4 22 9 19 6 -4 5 3 -1 14 -13 25 -14 35 -3 28 5 -3 9 1 9 9 0 8
-4 12 -9 9 -10 -6 -11 10 -1 20 9 9 12 46 3 41 -4 -3 -7 6 -7 20 0 14 4 22 9
19 6 -4 5 3 -1 14 -13 25 -14 35 -3 28 5 -3 9 1 9 9 0 8 -3 12 -7 10 -3 -2 -6
13 -6 34 1 23 6 38 12 37 20 -3 44 -28 37 -39 -3 -5 -2 -8 3 -5 5 2 36 -23 69
-56 33 -32 53 -55 45 -51 -11 6 -10 3 3 -12 9 -11 14 -23 10 -27 -11 -10 -14
-48 -4 -42 5 3 7 -3 4 -14 -3 -11 -10 -17 -15 -14 -7 4 -7 0 0 -12 5 -11 7
-25 5 -32 -3 -7 0 -19 6 -26 6 -7 8 -16 4 -20 -11 -10 -14 -48 -4 -42 5 3 7
-3 4 -14 -3 -11 -10 -17 -15 -14 -7 4 -7 0 0 -12 5 -11 7 -25 5 -32 -3 -7 0
-19 6 -26 6 -7 8 -16 4 -20 -11 -11 -14 -48 -3 -41 16 10 11 0 -15 -31 -14
-16 -25 -23 -25 -15 0 11 -3 11 -15 1 -9 -7 -14 -19 -11 -26 3 -7 0 -15 -7
-18 -7 -2 -8 -5 -1 -5 11 -1 10 -64 -2 -83 -4 -7 -3 -8 4 -4 7 4 12 2 12 -3 0
-6 -5 -11 -11 -11 -5 0 -7 -4 -4 -10 3 -5 1 -10 -5 -10 -17 0 -7 -33 17 -58
15 -15 32 -22 52 -20 16 1 28 5 25 9 -2 4 2 9 10 12 16 6 29 47 14 47 -5 0 -6
5 -3 11 4 5 0 18 -9 28 -21 23 -2 50 36 53 16 1 29 9 31 20 3 10 2 16 -1 14
-4 -2 -7 20 -8 49 0 30 3 52 8 49 4 -3 5 2 2 10 -9 25 -11 90 -3 107 5 9 5 19
2 23 -13 12 -14 48 -1 40 7 -5 8 -3 3 6 -10 17 -15 141 -4 135 4 -3 4 7 0 22
-3 16 -6 45 -6 66 1 27 -2 37 -13 37 -9 0 -12 3 -9 6 3 4 -5 15 -18 26 -14 11
-22 24 -19 30 4 6 3 8 -3 5 -5 -3 -30 16 -56 42 -25 27 -48 46 -51 43 -3 -3
-6 0 -6 7 0 7 -11 22 -25 33 -14 11 -23 24 -19 29 3 5 1 8 -5 7 -5 -2 -32 21
-60 50 -29 31 -52 49 -56 42z m51 -935 c11 -27 -1 -39 -19 -21 -17 17 -15 36
4 36 5 0 12 -7 15 -15z m198 -56 c-3 -5 0 -9 7 -9 18 0 5 -10 -19 -15 -14 -2
-19 1 -17 13 2 9 4 20 4 24 1 4 8 5 16 2 8 -4 12 -10 9 -15z"/>
<path d="M2325 1810 c6 -9 4 -12 -6 -9 -12 4 -64 -40 -79 -67 -3 -5 -8 -8 -12
-6 -5 1 -8 -5 -8 -14 0 -8 -3 -13 -7 -11 -5 2 -25 -14 -45 -35 -20 -21 -34
-38 -32 -38 3 0 -1 -6 -8 -14 -7 -8 -16 -12 -20 -9 -5 2 -8 -3 -8 -11 0 -9 -6
-15 -12 -13 -7 1 -13 -2 -12 -8 1 -10 -41 -54 -51 -55 -3 0 -6 -3 -6 -7 -1 -5
-9 -13 -19 -20 -18 -12 -20 -39 -5 -62 5 -10 4 -12 -4 -7 -14 9 -11 -30 3 -53
6 -9 5 -12 -2 -7 -13 8 -11 -72 3 -93 5 -10 4 -12 -4 -7 -14 9 -11 -30 3 -53
6 -9 5 -12 -1 -8 -14 9 -12 -151 1 -172 7 -10 6 -12 -4 -6 -10 6 -11 2 -6 -18
3 -14 2 -29 -4 -32 -6 -4 -6 -12 -1 -23 5 -9 12 -24 14 -33 4 -12 13 -15 31
-12 23 5 26 2 26 -25 0 -17 -5 -34 -11 -37 -6 -4 -8 -13 -5 -21 3 -8 0 -14 -7
-14 -8 0 -6 -4 3 -10 8 -5 11 -10 6 -10 -6 0 0 -9 12 -20 12 -11 31 -20 44
-20 26 1 61 24 51 33 -3 4 -1 7 5 7 6 0 9 11 5 28 -3 15 -6 33 -6 40 0 6 -5
12 -11 12 -6 0 -4 5 4 10 12 8 12 10 1 10 -11 0 -11 3 0 16 10 13 10 17 -2 25
-12 7 -12 9 1 9 12 0 12 2 1 9 -9 6 -10 11 -2 15 7 5 7 12 -1 26 -9 14 -16 16
-29 9 -12 -6 -20 -5 -26 3 -12 20 -11 68 1 68 7 0 8 3 1 8 -14 9 -15 153 -1
145 5 -4 6 -1 1 6 -13 22 -15 82 -3 75 7 -5 8 -2 3 5 -12 21 -15 82 -4 75 7
-4 7 2 -1 15 -9 17 -9 26 1 37 6 8 8 14 4 14 -5 0 14 21 41 47 27 25 48 50 46
55 -1 5 2 7 7 4 5 -3 18 6 29 20 18 26 42 26 42 1 0 -7 -4 -6 -10 3 -5 8 -10
10 -10 4 0 -6 3 -14 7 -18 11 -11 13 -67 1 -60 -7 4 -7 0 0 -13 7 -12 7 -24 0
-37 -8 -13 -7 -17 0 -12 14 9 11 -46 -3 -56 -7 -5 -6 -8 0 -8 13 0 13 -69 1
-89 -6 -9 -5 -12 1 -8 5 4 10 -7 10 -23 0 -17 -5 -30 -11 -30 -7 0 -8 -3 -1
-8 6 -4 11 -16 11 -27 0 -11 -5 -23 -11 -27 -6 -5 -6 -8 0 -8 14 0 15 -50 1
-50 -7 0 -8 -3 -1 -8 6 -4 11 -16 11 -27 0 -11 -5 -23 -11 -27 -6 -5 -6 -8 0
-8 14 0 16 -52 3 -67 -7 -9 -7 -13 0 -13 5 0 8 -10 4 -22 -4 -16 -2 -19 9 -14
8 4 5 0 -5 -8 -11 -9 -14 -16 -8 -16 10 0 10 -5 1 -22 -9 -16 -9 -23 0 -26 6
-2 11 -12 11 -23 0 -16 12 -25 23 -17 1 1 13 -4 26 -11 13 -7 21 -9 18 -4 -3
5 7 17 23 26 31 19 31 24 -2 105 -11 28 -11 34 2 42 8 5 10 10 4 10 -15 0 -15
51 0 69 9 12 8 14 -5 9 -13 -5 -16 -2 -12 13 3 11 10 16 17 12 6 -4 5 1 -3 10
-8 10 -11 20 -8 24 4 3 1 13 -6 21 -6 9 -7 13 -1 9 8 -4 10 14 9 61 -2 39 2
73 9 81 9 12 8 13 -7 8 -14 -5 -16 -3 -8 11 5 9 7 36 5 60 -3 33 -1 41 8 36 9
-5 8 -2 -1 9 -8 10 -11 20 -8 24 4 3 1 13 -6 21 -10 13 -9 14 2 8 10 -7 12 -4
7 12 -4 11 -2 23 4 27 6 3 7 12 3 18 -12 19 -12 71 0 86 10 12 9 13 -6 8 -14
-5 -16 -3 -9 11 11 21 9 123 -3 141 -5 10 -4 12 3 7 8 -5 12 0 12 13 0 11 -5
23 -12 27 -7 5 -8 3 -3 -6z m-18 -916 c-3 -4 -2 -15 4 -25 8 -16 6 -19 -11
-19 -12 0 -18 5 -15 10 3 6 1 10 -6 10 -7 0 -4 7 7 15 19 15 32 20 21 9z
m-193 -89 c-5 -11 -10 -12 -25 -2 -10 6 -19 15 -19 20 0 4 5 5 10 2 6 -3 10
-1 10 6 0 9 3 9 14 -1 8 -6 12 -18 10 -25z"/>
<path d="M908 1803 c-10 -2 -18 -9 -18 -14 0 -6 -6 -7 -12 -3 -7 4 -10 4 -6
-1 4 -4 3 -14 -3 -21 -6 -8 -7 -14 0 -18 6 -4 8 -13 4 -21 -3 -9 1 -15 8 -15
11 0 11 -3 -1 -10 -9 -6 -11 -10 -3 -10 7 0 10 -7 7 -15 -7 -18 -22 -15 -48
10 -30 29 -84 57 -96 50 -6 -3 -10 -1 -10 5 0 6 -4 9 -9 6 -5 -4 -12 0 -14 6
-4 10 -6 9 -6 -1 -1 -11 -4 -11 -16 -1 -10 8 -15 9 -15 1 0 -7 -8 -8 -26 -1
-16 7 -23 7 -19 0 5 -9 2 -11 -20 -10 -3 0 -16 -10 -28 -22 -23 -23 -31 -48
-15 -48 4 0 8 -6 8 -13 0 -14 65 -16 77 -2 5 4 2 5 -6 0 -9 -5 -12 -4 -7 3 4
7 15 8 30 2 13 -5 27 -6 30 -3 3 3 17 -2 31 -11 14 -9 25 -13 25 -9 0 5 5 0
11 -9 5 -10 16 -18 23 -18 8 0 17 -7 20 -16 3 -8 10 -12 16 -9 5 3 10 -3 10
-15 0 -12 4 -19 9 -16 5 3 12 -1 15 -10 3 -8 2 -13 -3 -10 -13 8 -21 -18 -11
-34 5 -8 6 -19 2 -25 -10 -15 -10 -57 0 -77 5 -10 3 -18 -5 -21 -9 -4 -9 -6 1
-6 6 -1 12 -10 12 -21 0 -11 5 -20 10 -20 6 0 10 -7 10 -16 0 -19 35 -71 69
-101 24 -22 66 -38 56 -23 -3 5 3 11 13 14 12 4 18 16 18 36 0 16 -2 28 -5 25
-8 -9 -41 27 -34 38 3 5 2 7 -4 4 -11 -7 -47 49 -39 62 4 5 1 11 -6 13 -8 3
-11 25 -10 64 3 79 14 121 36 136 8 5 7 8 -1 8 -6 0 -10 8 -8 18 2 9 4 21 4
25 1 5 5 6 10 3 11 -7 9 13 -2 32 -5 6 -4 12 2 12 6 0 6 11 0 32 -11 41 -11
41 4 32 6 -4 4 2 -6 13 -9 11 -14 23 -10 26 3 4 -4 7 -16 7 -12 0 -19 4 -16
10 3 6 5 9 3 9 -2 -1 -11 -3 -20 -6z"/>
<path d="M530 1251 c0 -4 -10 -7 -22 -6 -13 1 -29 -2 -36 -8 -7 -5 -15 -8 -18
-5 -6 6 -66 -48 -64 -58 1 -4 -2 -10 -7 -13 -16 -12 -33 -60 -22 -66 5 -4 6
-12 2 -18 -11 -18 -11 -47 0 -47 6 0 8 -3 4 -6 -3 -4 -1 -12 6 -18 15 -15 59
-28 51 -15 -3 5 0 9 6 9 17 0 29 43 18 64 -6 10 -6 21 -2 25 5 3 9 12 10 19 2
28 4 33 13 27 6 -3 14 3 20 12 6 10 11 14 11 8 0 -5 5 -3 10 5 7 10 10 11 10
2 0 -10 7 -9 30 3 21 11 27 20 23 32 -5 11 -3 14 6 8 8 -4 6 3 -4 18 -16 25
-45 43 -45 28z"/>
<path d="M1042 1152 c-11 -11 -23 -18 -25 -15 -3 2 -4 -7 -3 -21 2 -14 -1 -26
-6 -26 -6 0 -8 -7 -4 -15 3 -8 1 -15 -4 -15 -6 0 -10 -5 -10 -10 0 -18 -44
-59 -60 -57 -8 2 -25 9 -37 15 -13 7 -23 10 -23 7 0 -3 -18 14 -40 36 -22 23
-40 38 -40 34 0 -4 -6 -2 -14 4 -7 6 -22 8 -31 4 -12 -4 -16 -3 -11 5 7 11
-19 10 -60 -3 -22 -7 -52 -55 -34 -55 6 0 9 -6 8 -12 -2 -7 5 -12 14 -12 10 1
16 -2 13 -6 -3 -5 13 -6 35 -3 26 4 40 2 40 -6 0 -6 7 -11 16 -11 8 0 13 -4
10 -9 -4 -5 7 -15 24 -23 16 -7 30 -19 30 -26 0 -7 5 -10 10 -7 6 3 10 1 10
-4 0 -6 3 -10 8 -10 28 5 52 -2 46 -13 -5 -10 -4 -10 6 -1 7 6 19 9 28 6 11
-5 13 -3 7 8 -8 12 -6 12 8 0 12 -10 17 -10 17 -1 0 6 5 10 12 8 6 -2 24 8 38
24 15 15 31 24 35 20 5 -4 5 -2 2 5 -4 6 -1 17 6 25 8 7 13 21 11 31 -1 9 4
17 11 17 8 0 12 8 10 20 -2 11 -1 20 3 20 13 0 8 57 -5 69 -7 7 -13 8 -13 4 0
-4 -4 -2 -9 6 -7 11 -13 9 -29 -7z"/>
</g>
</svg>
